<svg height='100px' width='100px'  fill="#FF758C" xmlns="http://www.w3.org/2000/svg" xmlns:xlink="http://www.w3.org/1999/xlink" version="1.1" x="0px" y="0px" viewBox="0 0 850.4 566.9" style="enable-background:new 0 0 850.4 566.9;" xml:space="preserve"><style type="text/css">
	.st0{fill:none;stroke:#FF758C;stroke-width:27.0738;stroke-linecap:round;stroke-miterlimit:10;}
	.st1{fill:none;stroke:#FF758C;stroke-width:29.3218;stroke-miterlimit:10;}
</style><path class="st0" d="M266.6,406c0,0,41.2-61.7,47.9-125.9c6.5-61.9-44.8-106.4-69.9-83.3  c-33.2,30.5-24.8,144.8,93.5,162.1c65.9,9.6,112.6-20.5,127.4-77.6c20.4-78.6-25-108.9-46.1-108.9c-24.1,0-72.4,34.2-50.1,107.5  c18.1,59.2,78.3,88.6,126,79c122.6-24.8,126.7-131.6,93.5-162.1c-25.1-23.1-68.3,21-69.9,83.3c-1.6,63.4,47.9,125.9,47.9,125.9"></path><path class="st1" d="M422.6,417.3c-37.7,0-128.2,1.4-142.4,25.2c-14.4,24.2,64.7,32.5,140.6,32.5"></path><path class="st1" d="M406.2,417.3c37.7,0,128.2,1.4,142.4,25.2c14.4,24.2-64.7,32.5-140.6,32.5"></path><circle cx="419.9" cy="109.4" r="30.3"></circle><circle cx="588.6" cy="127" r="30.3"></circle><circle cx="232" cy="128.1" r="30.3"></circle></svg>